<svg xmlns="http://www.w3.org/2000/svg" viewBox="0 0 249.5 256.09"><defs><style>.cls-1{fill:#b51f39;}.cls-1,.cls-2{stroke:#411217;stroke-miterlimit:10;}.cls-2{fill:#d78555;}</style></defs><g id="Layer_2" data-name="Layer 2"><path class="cls-1" d="M191.58,321a10.82,10.82,0,0,0,1.14,1.71,16.28,16.28,0,0,1,2.11,4.28,82.18,82.18,0,0,1,2,12.8l1.34,14.53L199,366.9l1.49,5.26c3-4.84,5.29-9.21,7.07-12.8.84-1.71,3.62-7.77,6.73-16.17,1.77-4.8,3.11-9.11,4.09-12.46a64.09,64.09,0,0,1,4.33-11.65,12.59,12.59,0,0,1,1.19-.91,15.06,15.06,0,0,1,2.21-1.11,22.93,22.93,0,0,1,8.11-2.39c1-2.68,2.3-6.86,4-9.45.78-1.2,2.14-1.25,4.2-1.87a24.78,24.78,0,0,1,8.95-1l8.45-8.62h-3.59l-6.86,2-9.27,4.49-7.39,4.47-7.91,3.58c-2.07.81-4.91,1.89-8.31,3.1-3.16,1.13-5.78,2.07-9.42,3.17a71.52,71.52,0,0,1-8.08,2.17c-1,.2-3.79.68-6.92,1.41-.34.08-1,.25-1.22.75C190.77,319.05,190.68,319.49,191.58,321Z" transform="translate(-170.41 -259.03)"/><path class="cls-1" d="M251.38,302.35,236.75,320l-4.62,4.54c.22,2.71.39,5.58.45,8.59.09,3.72,0,7.23-.16,10.51h0v0a20.88,20.88,0,0,1-1.38,5.46,19.24,19.24,0,0,1-1.54,3,21.56,21.56,0,0,1-3,3.58,13,13,0,0,1-2.71,2.46,28.08,28.08,0,0,1-2.62,1.29h0c.79-4.75,4.33-15.18,10.18-35.64,1.2-4.16,3.88-13.42,6.84-18.64C238.87,304.09,241.21,302.58,251.38,302.35Z" transform="translate(-170.41 -259.03)"/><path class="cls-1" d="M234,314.67l-10.85,37.88a58,58,0,0,1-2,6.95,45.84,45.84,0,0,1-4,2.77A14.51,14.51,0,0,0,214,365a7.17,7.17,0,0,0-1.24,1.85,15,15,0,0,0-1.42,3.2,53.53,53.53,0,0,0-1.59,6c-.61,2.59-.61,2.47-1.1,4.74a35.5,35.5,0,0,1-.82,3.84,12.21,12.21,0,0,0-.55,3,8.34,8.34,0,0,0-.09,1.33l4.76-2-.38,4.33.25,4.13.84,3.46,2.16,4,2.75,2.5a12.2,12.2,0,0,0-1.76,4.18,16.31,16.31,0,0,0,0,5.5,54.66,54.66,0,0,0,1,6c1,4.7,1,5.75,1.72,9.5A138.56,138.56,0,0,0,223.28,448l-2.78-1.78a111,111,0,0,1-4.78-12,102.68,102.68,0,0,0-3.44-9.94c-.85-2-1.15-2.45-3.11-6.67s-2.2-4.92-3.67-8.11c-3.12-6.77-4.43-8.71-7.22-15.22a44.9,44.9,0,0,1-2.24-7.15,13.65,13.65,0,0,1-.37-5.8,11.6,11.6,0,0,1,1-3.13v0c1.05-1.65,2.44-3.88,4-6.56,4.15-7,7.06-12.64,7.81-14.18,6.57-13.39,11-32.74,14.17-38.35.54-.94,5.77-3,5.77-3A17.65,17.65,0,0,1,234,314.67Z" transform="translate(-170.41 -259.03)"/><path class="cls-1" d="M196.54,337.54,199,366.9l.93,3.29-2.12,1.67-1.89,2.64-1.19,3.06-1.33,4.61c-.31,2.53-.76,5-1.06,7.58-.34,2.15-.52,4.34-.86,6.5-.31,1.94-.63,3.89-.94,5.83-.37,2.1-.92,4.13-1.28,6.22a32.81,32.81,0,0,1-1.32,4.57,4.57,4.57,0,0,1-1.77-2.68c-.31-1.29-.57-4.07-1.06-7.59-.38-4.66-.71-9.29-1.09-14a51.66,51.66,0,0,0-1.28-8,24.93,24.93,0,0,0-2-6,22.17,22.17,0,0,0-2-3.46,14.09,14.09,0,0,0-3.18-3.19,28.22,28.22,0,0,1-3-2.17c-.93-.81-1.79-1.66-1.63-2.22s1.43-.54,3.1-1.07a16.62,16.62,0,0,0,3.22-1.47c1.56-1,3-2,4.54-3l5.06-5.16c.8-.88,1.53-1.79,2.33-2.67.43-.63,1.61-2.33,2-3a34.63,34.63,0,0,0,2.83-5.37A24.94,24.94,0,0,1,196.54,337.54Z" transform="translate(-170.41 -259.03)"/><path class="cls-1" d="M226.71,385.48a4.57,4.57,0,0,1,2.77.68,5.07,5.07,0,0,1,2.06,4.17l1,5.88-4.4-6.94Z" transform="translate(-170.41 -259.03)"/><path class="cls-1" d="M217,385.36a26.49,26.49,0,0,1,5-.17c2,.05,3.59.18,4.74.29l1.39,3.79c-.36.79-.94,2-1.63,3.59-1.29,2.94-1.19,2.92-1.86,4.31-1.28,2.64-1.8,3-2.14,4.47a8.86,8.86,0,0,0,0,3.53l1,3.89-5.88-3.68-2.75-2.5a15.48,15.48,0,0,1-2.16-4,17.44,17.44,0,0,1-.84-3.46,24,24,0,0,1-.25-4.13,29.61,29.61,0,0,1,.38-4.33A17.94,17.94,0,0,1,217,385.36Z" transform="translate(-170.41 -259.03)"/><path class="cls-1" d="M232.55,396.53a17.31,17.31,0,0,1,.86,4.27c.24,1.73.46,3.34.65,5.89.13,1.77.08,1.75.27,6.12.19,4.11.25,4.46.23,5.75a39.77,39.77,0,0,1-.53,5.69,47.3,47.3,0,0,1-5.67-6.33,34.07,34.07,0,0,1-3.92-6.48,33.07,33.07,0,0,1-1.33-3.69,17.65,17.65,0,0,1-.53-2.17,16.56,16.56,0,0,1-.16-3.39c.18-2.61,1.54-4.19,3.5-8.06.57-1.12,1.36-2.77,2.18-4.86.45.77,1.17,2,2.12,3.43A23.29,23.29,0,0,1,232.55,396.53Z" transform="translate(-170.41 -259.03)"/><path class="cls-1" d="M206.92,447.23a11.55,11.55,0,0,0-.15,3.65,24.79,24.79,0,0,0,1.44,5.79,60.25,60.25,0,0,0,3.42,6.45c3.05,5.45,3.09,5.74,3.47,6.86a48.12,48.12,0,0,1,1.86,6.39,37.72,37.72,0,0,1,.87,5.75,35.08,35.08,0,0,1,.59,4.48,50.35,50.35,0,0,1-.07,6.86c0,.09-.1,5.87-.1,5.87l2.15.32c0-.27,5.84-10.35,7.79-13.4,3.59-5.61,7.91-10.93,8.08-11.23a55.76,55.76,0,0,1,4.29-6.54,33.77,33.77,0,0,1-4.64-.79c-1.44-.34-3-.88-4.82-1.48a17.93,17.93,0,0,1-3.64-1.92,37,37,0,0,1-4-2.6c-4.19-3.25-7-5-9.77-7.92-1.78-1.88-3.05-3.37-4.19-4.52A10.9,10.9,0,0,0,206.92,447.23Z" transform="translate(-170.41 -259.03)"/><path class="cls-1" d="M196,387.13a17.31,17.31,0,0,1-.37-5.8,9,9,0,0,1,1.05-3.16c.79-1.46,2.4-3.85,3.91-6.48l-.68-1.5a10.65,10.65,0,0,0-2.12,1.67,12,12,0,0,0-1.89,2.64,16.76,16.76,0,0,0-1.19,3.06,29.69,29.69,0,0,0-1.33,4.61c-.82,5.29-1.67,12.48-1.67,12.48-.66,3.3-1.52,11.18-3.49,17.32-1.15,3.61-3,6.72-4.34,10.07-.71,1.23-1.49,3.42-2.77,5.68-1.71,3-3.48,4.26-3,5.28.35.73,1.52.63,4,1.26a26.21,26.21,0,0,1,4.36,1.37c5.19,2,6.43,2.72,11.52,5.1,2.62,1.77,5.53,3.83,8.36,6.08,1.67,1.82,3.37,2.76,5.75,5.07,3.19,3.09,6.05,6.09,9,8.06a51.07,51.07,0,0,0,8.82,5.8,37.55,37.55,0,0,0,10.58,2.74l3.48-5.27c-2.12.32-7.18-.08-12.33-1.93-3-.81-3.32-1.61-4.94-2.84-2.23-1.69-3.38-10.61-3.38-10.61-.32-.25-2.89-1.61-2.89-1.61-1.79-4-4.57-10.66-5.06-12.81-.43-1.9-1.18-3.72-1.77-5.57-.47-1.19-.93-2.38-1.39-3.56-3.75-8.25-6.61-14.5-8.61-18.64a93.69,93.69,0,0,1-5.39-11.36,71.7,71.7,0,0,1-2.24-7.15" transform="translate(-170.41 -259.03)"/><path class="cls-1" d="M243.78,433.11l13.94,14.67c-1.85.37-3.39.24-3.37.42s6.7,2.92,6.7,2.92a8.55,8.55,0,0,0,2.18,2.15,13.77,13.77,0,0,0,3.62,1.29c2.64.49,6.9-.77,7.32-.85,5.06-1,6.9-2.35,12.15-3.69,2.4-.61,5.29-1,11.36-2,3-.48,5.77-.68,7.59-1,4-.72,11.63-1.28,14.8-1.43,1.26-.07,6.16-.6,9.25-.53a8.26,8.26,0,0,0,3.84-.78c.64-.28,1.42-.44,3.66-2.57a35.19,35.19,0,0,0,2.7-2.83c.51-.58,2.42-1.16,3.21-1.66a24.87,24.87,0,0,1,3.09-1.67c.37-.19,0-.05,2.23-1.32.83-.48,1.66-.95,2.52-1.38,0,0-1.32,4.34-2,5.91,0,.07-1.12,2.54-1.6,3.8-1.89,4.89-1.69,4.43-2.33,5.2a8,8,0,0,1-3.05,2.36c-3.1,1.57-5.3,2.36-8.07,3.72-1.56.76-3.59,1.8-7.58,4-3.57,2-8.6,5.23-15.46,9.56-1.23-.93-3.87-1.54-5.77-4.52-1.74-2.73-2.38-4.72-3-5.15-1.23-.89-9.1,2-17.91,1.63-.84,0-16-.29-19-.4-4.09-.16-9.84.54-17.55-.83-.94,1.74-2,3.35-2.95,5.08A32.14,32.14,0,0,1,234.18,462c-2.87-.82-5.4-1.55-7.41-3.59-2.48-2.52-2.47-5.34-3.34-10.42-1.06-6.13-1.26-3.14-4.78-17.44a61.5,61.5,0,0,1-1.42-6.61c-.1-.82-.09-1-.19-2a60.07,60.07,0,0,0-1.11-6.89v-5.41l1.76-4.27c1.46.73,5.74,3.52,5.74,3.52.64,2.11,9.68,13.5,10.75,15.35.54.94-1.1,6.18-3.11,9.41a40.79,40.79,0,0,1-5.06,6.55,24,24,0,0,0,11.51-2.83A26.61,26.61,0,0,0,243.78,433.11Z" transform="translate(-170.41 -259.03)"/><path class="cls-1" d="M244.4,494.27s3.5.52,7.64,1c3,.36,6.68.79,14.13,2,2.76.46,4.31.81,6.86,1.12,3.84.47,6.3.56,8.82,0a11.07,11.07,0,0,0,4-1.89c1.08-.78,2.65-2.07,2.5-2.94,0,0-10.31-2.26-16.41-2.25a163.19,163.19,0,0,0-16.84,1.15C251.08,492.84,244.4,494.27,244.4,494.27Z" transform="translate(-170.41 -259.03)"/><path class="cls-1" d="M314.5,497.21c-.13.91-1.93,1.82-2.67,3.25a46.51,46.51,0,0,1-3.27,4.54s-1.83-1.58-3.17-2.81a39,39,0,0,0-4.33-2.8c-1.42-1.44-7.42-3.7-8.43-4.74,3.49.41,7.76,1.68,11.26,2.1S311.1,496.8,314.5,497.21Z" transform="translate(-170.41 -259.03)"/><polygon class="cls-1" points="210.63 223.37 215.57 224.72 215.3 218.62 210.63 223.37"/><path class="cls-1" d="M250.31,417.67l6.38,3.77,15.24,4.12c.42.09-.94,9.39-1.46,10.11a35.71,35.71,0,0,1-3.22,5.06c-2.21,2.71-5.8,6.47-9.68,7l-13.93-14.68c1.38-2.58,3.06-5.1,4-8.27A49.73,49.73,0,0,1,250.31,417.67Z" transform="translate(-170.41 -259.03)"/><path class="cls-1" d="M257.94,407.63a18.29,18.29,0,0,0-3.79,3.7c-2,2.34-3.43,4.41-3.84,6.34a43,43,0,0,0,6.38,3.77A44.4,44.4,0,0,0,272,425.56a81.58,81.58,0,0,0,.29-8.7c-.06-3-.05-6,0-9a7.5,7.5,0,0,1-4.42-.59,4.66,4.66,0,0,1-2.78-2.31,8,8,0,0,1,0-3.47c.93-3.17,1.86-5.55,2.22-7l-11.78-5.14c.38,3.52.74,7.21,1.25,10.88C257.15,402.78,257.54,405.14,257.94,407.63Z" transform="translate(-170.41 -259.03)"/><path class="cls-1" d="M269.17,385.89l3.18,6.55v15.44a8.28,8.28,0,0,1-2.91-.07c-1.06-.22-3.1-.65-4.1-2.43a5,5,0,0,1-.24-3.87v0l2.07-7.38Q268.17,390,269.17,385.89Z" transform="translate(-170.41 -259.03)"/><path class="cls-1" d="M273,359.31c.22,4.71.37,10.45.28,15.69-.11,6.18-1,12.78-1,17.44l-3.42-6.36c-.34-.67-.78-1.43-1.34-2.4-.78-1.33-1.52-2.67-2.63-4.32-2.8-4.16-3.1-4.76-3.4-5.89-.22-.81-.66-2.41-.2-3.26.89-1.66,3-3.13,6.24-6A54,54,0,0,0,273,359.31Z" transform="translate(-170.41 -259.03)"/><path class="cls-1" d="M270.29,330.13a50.65,50.65,0,0,1,2,8.73c.83,7.68.4,14.94.75,20.45-2.14,2.22-4.16,3.7-5.43,4.86-3.1,2.82-5.22,3.85-6.24,6-.5,1.06-.07,2.26.2,3.26.66,2.5,2.12,4,3.4,5.89a54.52,54.52,0,0,1,4.14,7.22L267,394.32l-11.43-5c-.14-2.05-.53-6.27-.66-8.2-.12-1.63-.28-25.07-.28-25.07,2.2-2.31,4.73-7.26,8.23-12.93,1.45-2.31,2.47-4.36,3.92-6.67C267.91,334.61,269.13,332,270.29,330.13Z" transform="translate(-170.41 -259.03)"/><path class="cls-1" d="M267.24,321.36l1.58,3.95,1.47,4.82q-3.44,6.31-7.46,13c-2.74,4.54-5.5,8.85-8.23,12.93,0-20.18,0-35,.14-38a9.89,9.89,0,0,1,1.37-4.32,17.37,17.37,0,0,1,2.05-2.91c2.63-3.29,4.19-5.21,5.55-5.36a3.79,3.79,0,0,1,3.1,1l.12-2.54c1,0,3.63,0,3.63,0,3.5.39,6.59.76,9.37,1.13l1.54,7.18a3.88,3.88,0,0,1-1.14,2.05,8.87,8.87,0,0,1-3.19,2.68c-3.59,1.86-6.12,3-6.39,3.15C269.25,320.7,268.1,321,267.24,321.36Z" transform="translate(-170.41 -259.03)"/><path class="cls-1" d="M266.89,299.27l0,4.58,3.63,0,9.37,1.13-.48-2.72a9.08,9.08,0,0,0,2.35-.56,15.19,15.19,0,0,0,4.52-3.16,25.29,25.29,0,0,0,5.07-4.94c-1.58.29-4.36,1.28-5.93,1.58L274,298Z" transform="translate(-170.41 -259.03)"/><polygon class="cls-1" points="96.47 36.19 98.73 38.23 96.47 40.24 96.47 36.19"/><path class="cls-1" d="M313.38,279.71c-1.53,1.07-5.09,2.35-8.18,3.88-3.3,1.64-6,2.81-7.25,3.82-2.75,2.16-4.64,4.78-6.56,6.22C286,295.24,280.17,296.72,274,298c-2.41.49-7.08,1.3-7.08,1.3,0-.62,1.83-2.25,2.93-3.51a90.93,90.93,0,0,1,6.64-7,31.26,31.26,0,0,1,3.45-2.57c.63-.41,1.1-.68,1.31-.8a41.1,41.1,0,0,1,6.21-3,36.28,36.28,0,0,1,5.74-1.64A39.1,39.1,0,0,1,299,280c3.61-.22,4.71-.05,8.54-.19C309.88,279.76,311,279.71,313.38,279.71Z" transform="translate(-170.41 -259.03)"/><path class="cls-1" d="M265,290.19c.46.17,1.1,1.55,1.24,1.85a8.52,8.52,0,0,1,.57,3.18c0,.52,1.71,1.82,2.06,1.55a43,43,0,0,1,4.86-5.3,60.83,60.83,0,0,1,5.76-5,39.21,39.21,0,0,1,10.57-4.9,36.63,36.63,0,0,1,9-1.5c5.1-.18,8.54-.19,8.54-.19.26-.78-1.85-3.39-2.8-4.2a37.7,37.7,0,0,0-6.34-3.75,45,45,0,0,0-7.63-2.25,30.23,30.23,0,0,0-6.66-1.11c-4.69.15-16.18-.16-21.73-.25-2.82,0-4.16-.74-6.46-1.09s-6.84-2.82-8.53-2.25c-.7.24-1.25,3.23-2,4.86,0,0-1.33,2.88-2.76,6.48a70.17,70.17,0,0,1-3.17,6.46,44.84,44.84,0,0,1-5.13,8.39c-1.67,2-3.93,4.86-4.28,5.24a28.32,28.32,0,0,0-4.27,5.18,9.35,9.35,0,0,0-1.33,4.09,8.81,8.81,0,0,0,.05,2.68,60.42,60.42,0,0,0,9.51-4.48l1.91-1.16c1-.62,3.16-1.89,5.64-3.25,2.25-1.23,3.39-1.82,4.47-2.33,4.27-2,4.5-1.5,8.13-2.81a10.62,10.62,0,0,1,2-.58,20.76,20.76,0,0,1,3.59,0l3.84-3C263.84,290.54,264.33,290,265,290.19Z" transform="translate(-170.41 -259.03)"/><path class="cls-1" d="M319.06,297.25l5.19,7.58c1.26-.12,2.39-.16,4.81-.39a6.44,6.44,0,0,1,4.22.78c3.85,2.56,5.57,3.58,7.22,3.07-1.87-1.94-11.94-10.33-11.94-10.33a5.25,5.25,0,0,0-3.14-1.25c-.18,0-3.36-.1-3.54-.08A6,6,0,0,0,319.06,297.25Z" transform="translate(-170.41 -259.03)"/><path class="cls-1" d="M307,308.68l8.61,1.05a36.21,36.21,0,0,1,3.44-2.57,18.87,18.87,0,0,1,5.19-2.33l-5.19-7.58c-1.55-.22-4.5.65-6.77,1.19a9.56,9.56,0,0,0-4.08,2.69C307,302.34,307,307.76,307,308.68Z" transform="translate(-170.41 -259.03)"/><path class="cls-1" d="M363,319.06c1.45.24,2.2,4,2.2,5.12,0,1.52-.09,5.25,0,6.62-.33.32-8.49-6.29-10.89-8.56-.92-.87-2.36-1.54-8.67-7.13-3-2.65-5.4-4.78-7.17-6.35-.3-.32.9-.5,1.89-.52,4.86,2.33,12.93,9.73,15.43,10.59C356.57,319.1,362,318.9,363,319.06Z" transform="translate(-170.41 -259.03)"/><path class="cls-1" d="M308.72,366.65c.46,1,5,8.11,5.12,8.79a9.12,9.12,0,0,1,.37,4.14,18.3,18.3,0,0,1-1.44,4.82,9.17,9.17,0,0,1-2.81,1.5l-1.08-10.27Z" transform="translate(-170.41 -259.03)"/><path class="cls-1" d="M315.31,374l-1.25,2.25a11.77,11.77,0,0,1,.15,3.31,18.35,18.35,0,0,1-1.44,4.82c-.21.49-2.87,1.5-2.87,1.5,0,4.18-.08,7.74.08,10.1.09,1.44.34,3.91.27,7.39,0,1.42,0,3.37-.07,4.16a97.07,97.07,0,0,1,6.06-7.77c.84-1.13,3.36-3.35,4.58-5.9a5.14,5.14,0,0,0,.45-4.33c-.27-1.19-.35-1.39-2.14-4.22a18.12,18.12,0,0,1-2.34-4.45,31.49,31.49,0,0,1-1.34-4.48A8.06,8.06,0,0,1,315.31,374Z" transform="translate(-170.41 -259.03)"/><path class="cls-1" d="M308.25,352.44l.47,14.21c1.59,2.7,3.65,6.11,5.12,8.79a3.39,3.39,0,0,1,.22.83,21.23,21.23,0,0,0,1.25-2.25,25.91,25.91,0,0,0,1.65-4.8,15,15,0,0,0,.6-3,5,5,0,0,0-.43-2.71,45.17,45.17,0,0,0-4.21-6.3C311.1,355.36,309.78,354,308.25,352.44Z" transform="translate(-170.41 -259.03)"/><path class="cls-1" d="M307.42,336.24l.83,16.2c1.94,1.85,3.5,3.51,4.67,4.82,3,3.42,3.78,4.85,4.21,6.3a8.6,8.6,0,0,1,.46,3.09c-.17,3-2.08,4-2.28,7.37a11,11,0,0,0,.14,2.38,16.06,16.06,0,0,0,1.34,4.48c1.7,3.81,3.32,5,4.42,8.4a5.91,5.91,0,0,1,.32,2.36,6.49,6.49,0,0,1-1.22,3.18,21.65,21.65,0,0,1-4,4.85,31.78,31.78,0,0,0-6.15,7.88v2.81a10.62,10.62,0,0,1,3,.15c2,.33,2.79,1,4.08.84.93-.13,1.54-.74,2.71-2.07s3.9-7.6,5.1-9.13c.85-1.09,1.52-2.89,3.42-5.8,1.78-2.72,2.68-4,3.73-5.38,2.88-3.74,4.29-5.5,5.56-7.39a14.37,14.37,0,0,0,1.44-3.37,14.59,14.59,0,0,0,.83-4.77,13.64,13.64,0,0,0-.93-4.4,17.18,17.18,0,0,0-1.89-4.19c-2.38-3-2.35-3.43-3.65-5-2.59-3.24-2.18-3.51-4.42-5.87-2.88-3-5.1-5.27-6.44-6.5-2.21-2-6.5-8.13-8.26-9.41-.87-.63-1.68-1.63-3.56-1.72A19.49,19.49,0,0,0,307.42,336.24Z" transform="translate(-170.41 -259.03)"/><path class="cls-1" d="M307.42,329.78c2.83-.08,5.76,0,7.58.12,1.36.09,5.21.58,7.14,1.56a16.06,16.06,0,0,1,4.47,2.92,7,7,0,0,1,1.24,3.29,41.53,41.53,0,0,1,.28,5.48c0,2.13,1.08,5.6,1.31,11.05-2.11-2.28-5.95-5.72-7.52-7.59-3.56-4.26-6.67-8.83-9-9.74a13.05,13.05,0,0,0-5.5-.63Z" transform="translate(-170.41 -259.03)"/><path class="cls-1" d="M318.78,423.73c1.06-.69,2.85-1.72,4-2.34s3.34-2.2,6-4c1.89-1.3,6.35-6.05,7.36-7.1a12.22,12.22,0,0,0,1-3.46c0-2.71-.09-12.52.14-14.27.34-2.46.64-8.91,1.37-12.45-2.5,4.52-6.78,9.17-8.54,12-2.9,4.36-4.14,6.64-5.18,8.43-.91,1.57-2.81,5.27-4.61,8.46a4.84,4.84,0,0,1-2.94,2.37c-1.47.15-3.28-1-7.1-1.09,0,0,.08,1.64-.7,2.3s-1.87-.06-4,1a6.82,6.82,0,0,0-2.77,2.83c-1.24,1.94-.73,2.85-1.83,6.33a18.77,18.77,0,0,1-1.95,4.59,24.42,24.42,0,0,1-4,5,14.5,14.5,0,0,0,4.56.7,10.1,10.1,0,0,0,5.07-1.36C308.88,429.47,314.81,426.32,318.78,423.73Z" transform="translate(-170.41 -259.03)"/><path class="cls-1" d="M326.2,309.94c-4.92-.33-7.82-.21-10.88-.21L307,308.68l.48,21.1c3.33,0,5.89,0,7.58.12a18.4,18.4,0,0,1,7.13,1.56c1.25-.68,1.91-.5,3.62-.59a14.49,14.49,0,0,1,4.08.24,16.28,16.28,0,0,1,4.17,1.78,23.78,23.78,0,0,1,4.36,3.29c2.65,2.28,8.17,12.47,8.56,11.9.66-1-2-6.11-2.74-9.12-1.16-4.51-1.76-8.81-2.89-13.86-1-4.42-.84-5.23-1.85-7.11a17.13,17.13,0,0,0-7.15-6.68A16.1,16.1,0,0,0,326.2,309.94Z" transform="translate(-170.41 -259.03)"/><path class="cls-1" d="M350.42,405.38c1-2.1,1.19-2.61,2.48-5.28a73.32,73.32,0,0,1,4.75-8.18c3.93-6,5.09-6.75,5.91-10.21a19.07,19.07,0,0,0,.63-5.11,20.79,20.79,0,0,0-1.13-4.68,23,23,0,0,0-2.52-4.65c-2.19-3.15-4.25-6.28-6.5-9.39-3.39-4.71-5.58-8-7.05-9.8-3.48-4.23-6.34-9.79-8.56-11.9a21.52,21.52,0,0,0-4.36-3.29,12.75,12.75,0,0,0-4.63-1.88,32.26,32.26,0,0,0-5.69-.06,4.8,4.8,0,0,0-1.55.51,24.3,24.3,0,0,1,4.41,2.92,4.89,4.89,0,0,1,.91,1.8c.56,1.65.62,6.78.61,7-.19,1.79,1.45,7.56,1.31,11.05l4,5.38c1.55,2.07,2.8,3.86,4.22,5.85.87,1.22,1.71,4.47,2.14,5.73a9.27,9.27,0,0,1-.15,5.7c-.44,1.45-.75,2.3-1.08,3.25-.5,1.43-.52,3.24-1,8.59a98.51,98.51,0,0,0-.51,13.38c0,.71.11,2.46,0,4.75a7.07,7.07,0,0,1-1,3.46,61.53,61.53,0,0,1-7.36,7.1c-2,1.59-10,6.34-10,6.34.3,1.11,7.08.79,13.35-1.23a27.2,27.2,0,0,0,9.26-4.58C346.54,413.85,349,408.43,350.42,405.38Z" transform="translate(-170.41 -259.03)"/><path class="cls-1" d="M285.63,440a119.47,119.47,0,0,0,9.34-7.67,11.16,11.16,0,0,0,4.18.7,11.63,11.63,0,0,0,3-.34c2-.52,6.31-3.15,7.12-3.44,1.05-.37,9.51-5.48,9.51-5.48.34.13.35,1.73,11.92-.8A25.91,25.91,0,0,0,345,414.45a37.08,37.08,0,0,0,5.77-9.17s-.52,5-.83,6.43c-.6,2.7-2.72,11.6-3.3,13.58-.76,2.65-4.77,11.63-6.27,12.75-.42.32-5.65,5.49-6.17,5.69a15.82,15.82,0,0,1-3.74,1.28c-1.39,0-7.26.46-11,.56A116.77,116.77,0,0,0,305.13,447s-14.91,1.84-18.65,2.91c-2.29.66-6.93,2.14-8.92,2.89a70.38,70.38,0,0,1-7.25,1.66,10.66,10.66,0,0,1-4.06,0,8.93,8.93,0,0,1-3.59-1.48,13,13,0,0,1-1.76-1.86s8,1.8,10.59.9c1.22-.43,1.64-1.1,4.22-3.31C279,445.9,284.62,440.69,285.63,440Z" transform="translate(-170.41 -259.03)"/><path class="cls-1" d="M384.82,365.48c.41-2.85,1.78-6.24,2.17-9.14a24.34,24.34,0,0,0-.45-6.32c-.6-2.22-2.74-4.46-3.56-5.6a51.9,51.9,0,0,0-5.85-5.83c-3.36-2.41-8.88-6.88-11.72-7.81-3.17-1-10.55-8.27-11.24-8.72a38.2,38.2,0,0,1-3.69-2.86c-1.17-.95-9.09-7.94-11.8-10.31-1.12-1-4-2.73-5.33-3.59-.27-.19-1.29-1-3.84-.82-.3,0-4.64.28-5.19.43a24,24,0,0,0-8.31,4.52s1.87,0,6.05.18a62.43,62.43,0,0,1,7.79.86c2,.33,3.48,1.28,5.41,2.69a41.51,41.51,0,0,1,4,4.39c1.4,1.94,2.59,9.38,2.66,10.08.68,7.63,5.82,20.44,5.1,20.53l8.9,12.4c2.47,3.05,6.67,9.16,7.67,13a15,15,0,0,1,.41,6.16c-.5,3.86-2.33,6.42-3.86,8.66-3.68,5.42-9.38,14.61-9.38,17.1,0,3.5-3.39,16.39-4.12,19.91-.56,2.65-2,4.82-3.72,8.7,0,0-1.86,3-3.21,4.66h0s9.61-5.11,10.74-5.66l10.15-4.88c3-1.45,4.66-1.44,7.29-3.09a20.33,20.33,0,0,0,4.85-4.08c.56-.7,1.72-1.4,2.83-5.23.26-.87,1.05-7.8,1.32-12.36.16-2.57.93-6.36,1.92-12.78.6-3.86,3.06-14.46,3.93-18A53,53,0,0,1,384.82,365.48Z" transform="translate(-170.41 -259.03)"/><path class="cls-1" d="M367,450.65c2.33-1.46,5.19-3.11,6.74-8,2.13-6.62,4.45-15,5.91-19.44,3.07-9.3,8.62-22.92,9.52-26,.46-1.63.68-3.38,1.19-6.17s.4-3.39-.38-10.71c-.72-6.73-1.16-8.49-1.71-9.87-1-2.45-1.83-5.31-3.61-4.81,0,0-4.05,14.31-5.84,24.4-2.26,12.71-2.8,23.34-3.77,27.15-.51,2-2.85,4.52-5.17,6.5s-6.53,3.36-9.17,4.45c-2.4,1-6,2.83-10.31,5,0,0-4.75,14.12-6.46,15.63-1,.92-5.55,2.88-9.48,4.57-2.3,1-5.39,2.73-9.4,4.95l-14.75,9.17.13.11s10.71,5.41,15.42,4.47c0,0,12.25-7.62,17.58-10.08C347.33,459.13,366,451.32,367,450.65Z" transform="translate(-170.41 -259.03)"/><path class="cls-1" d="M353.39,473c2.33-1.81,3-3,6.58-6.2,1.71-1.52,6-9.18,7-12.39a21.22,21.22,0,0,0,.9-4.3c-8.07,3.38-16.77,7.57-25.71,12.42-5.49,3-11.74,6.54-16.55,9.55,4.41.13,8.62,1,13,1.11C343.39,473.36,348.61,472.89,353.39,473Z" transform="translate(-170.41 -259.03)"/><path class="cls-1" d="M385.27,460c-1.4,1.36-.87,3.86-2.62,6.27-1.59,2.19-9.61,3.84-11.53,4.42-3.16,1-16.34,2.19-17.5,2.3l-.2,0c.52-.49,4.28-3.93,7-6.63.89-.88,2.58-3.86,4.47-7.3a15.36,15.36,0,0,0,1.85-4.07c.39-1.71.82-3.06.82-3.06a8.59,8.59,0,0,0,4.09.25,9,9,0,0,0,3.95-1.84c3.53-2.7,5.63-4.48,7.07-6.75.68-1.06,5.11-7.58,6.81-10.18.71-1.09,6.87-12.44,6.87-12.44a7.86,7.86,0,0,1,1.73,4.35,36.66,36.66,0,0,1,.11,5.15,57.38,57.38,0,0,1-.67,7.28,40.63,40.63,0,0,1-1.71,5.29c-.21.58-1.34,3-2.87,7.61a43.92,43.92,0,0,1-3.36,8C387.75,459.52,386.58,458.77,385.27,460Z" transform="translate(-170.41 -259.03)"/><path class="cls-1" d="M419.41,395.72c-.1-.77-3.61-2.55-6.21-5a57,57,0,0,1-5.39-6.88,98,98,0,0,1-7.68-14.4A151.54,151.54,0,0,1,394,353.78c-.59-1.81-4.6-12.49-6.27-15.36a19.71,19.71,0,0,0-4.27-5.68,19.13,19.13,0,0,0-5.92-3.91,17.27,17.27,0,0,0-5.75-1.23c-1.06,0-5.54.5-6.46,1.94a1.61,1.61,0,0,0,0,1.28,87.63,87.63,0,0,1,11.73,7.81c2.21,1.75,4.44,4.51,5.77,5.73a12.72,12.72,0,0,1,3.49,5.2c.66,2.15.46,3.07.65,5.16.24,2.56-2.18,10.56-2.18,10.56h0c.36.74,1.56-.27,2.74,3.24a39.92,39.92,0,0,1,2.29,10.16c.85,9.79.89,9.23.87,9.82-.19,4.22-1.13,7.21-2.87,12.62-1.35,4.17-2,5.15-4.32,11.41-1.93,5.11-3.05,8.07-4.19,11.83-4,13.29-5.55,18.33-5.85,19.21a12.72,12.72,0,0,1-5.62,6.57l-.26,1.78a9.72,9.72,0,0,0,5.27-.07c2.3-.81,7.72-5.16,9-7.07,1-1.52,6.61-10,8.2-12.28,1.82-2.6,4.83-9.29,6.3-11.54.83-1.28,4.29-5.39,9.43-12.17,2.42-3.18,7.23-8.33,8.42-9.5C416.4,397.16,419.54,396.64,419.41,395.72Z" transform="translate(-170.41 -259.03)"/><path class="cls-1" d="M399.6,317.38c.69.75-.83,3.36-1.68,9.15a59.76,59.76,0,0,0-.1,9.57,58.35,58.35,0,0,0,2.47,9.69c.51,1.43,1.59,3.53,3.82,8.24,1.75,3.69,2.92,6,4.33,9.69.14.35,1.05,2.46,1.66,4.31.49,1.5.67,2.56,1,4.15.47,2,.92,3.46.78,4.83a12.25,12.25,0,0,1-.82,3.16c-.43,1-1.77,3.84-3.18,3.84,0,0-3.25-4.64-3.84-6.4s-3.5-6.17-6.19-13.32c-2.56-6.81-4.74-13.1-5.21-14.14a96.77,96.77,0,0,0-5.27-12.29,20.64,20.64,0,0,0-2.58-3.77,19.34,19.34,0,0,0-5.59-4.46,21.71,21.71,0,0,0-4.82-1.72,15.7,15.7,0,0,0-5.47,0,6.06,6.06,0,0,0-3.62,1.63s.07-5.49-.09-6.09c-.43-1.64-.78-3.66-2.14-4.51,0,0,2.67-1.11,4.14-1.92,3.29-1.81,6.16-5.23,8.64-7.21,1.09.8,2.86,2.31,4.89,3.61,1.64,1,10.59,4.25,12,4.18C393.81,318,399.2,316.94,399.6,317.38Z" transform="translate(-170.41 -259.03)"/></g><g id="Layer_3" data-name="Layer 3"><path class="cls-2" d="M264.79,290.28a4.83,4.83,0,0,1,1.93,3.59c.15,2.76-.19,10.49,0,12a11.08,11.08,0,0,0-2.71-.48c-2.37-.13-7.08,6.79-8.52,9.2s-.87,4.58-.88,10.75c0,8.42,0,12.68,0,15.29.14,7.53-.06,6.07,0,17.31.08,12,.12,18,.63,26.16.67,10.66,1.61,15.95,1.75,17.56.06.73.94,6,.94,6-.51.53-2.93,2.8-3.66,3.54-2.82,2.88-3.43,5.49-4,6.35-1.35,2.15-3,8.3-4.66,11.94-2,4.43-6.43,7-7.88,7.81A22.11,22.11,0,0,1,226.44,440s5.77-5.73,7.51-13.09c0-.11.16-1.57.18-3.25.09-8.71.11-13,.05-14.56a76.39,76.39,0,0,0-1.63-12.53c-1.11-4.55-.88-7.74-2.06-9.44-1.75-2.54-12.28-2.21-13.22-1.93A60,60,0,0,0,207.1,389c0-2.17,2.79-13.61,3.26-15.61,2.22-9.5,5.5-10.05,8.42-12.13,6.26-4.48,6-2.48,10.72-9.09,3.4-4.8,3.12-10.81,3.06-17.81-.05-6.47-.28-6.44-.43-9.82a146.66,146.66,0,0,0,13.05-15C249,304.38,260.9,292.19,264.79,290.28Z" transform="translate(-170.41 -259.03)"/><path class="cls-2" d="M254.75,448.14c-.14,0-.16.21,0,.28,1.57.91,5.46,2.31,6.45,2.73a67.75,67.75,0,0,0,9.47,1c2-.16,10.68-8.44,11.39-9.2,2.82-3,12-9.72,13-10.87s5.41-4.91,6.22-11.23a11,11,0,0,1,2.16-5.7c1.94-2.52,5.49-2.31,6.26-2.88s.65-10.61.54-12.66c-.25-4.52-.06-9.09-.31-13.61-.9-16.13-.79-13.81-1.22-20.56-.24-3.74-.28-6.13-.32-9.56,0-3.27,0-4.12-.41-9.38-.1-1.15-.89-39.44-.91-39.87-.23-5.81,3.88-7.89,5.25-8.23,7-1.77,13.31-1.83,14.24-1.58,1.86.5,5.75,4,13.46,11.09,0,0,2.2.73,7.1,4.63,5.14,4.1,6.17,5.52,8,6.05a16.46,16.46,0,0,0,8.21.12c3.33-.63,9.1-5.53,12.94-9a152.78,152.78,0,0,0,16.21-17.26s-7,.43-14,.38c-1.83,0-6.35-3.11-12-7.56-1.87-1.47-3.92-3.83-7-6.58-2.89-2.56-14.79-17.83-16.93-19.08,0,0-3.77,2.73-9.92,8.18-2,1.82-12.88,7.58-18.44,11-2.75,1.69-12.2,5.93-16,8.46-2.22,1.47-4.49,4.35-6.81,6.4-2.91,2.57-6.43,6.36-7.83,7.2a24,24,0,0,1-4.12,1.4c.43,3.11,2.14,9.58,2,10-.56,2.1-2.57,3.76-4.2,4.72a101.7,101.7,0,0,1-9.92,4.47c1,1.91,2.48,7.46,2.94,8.74a56.37,56.37,0,0,1,2.19,11c.59,5.31.4,7.14.54,18.2.13,10.45.39,9.22.3,14.36-.14,7.92-.7,8.54-1,17.51-.07,2.44-.05,6.44,0,14.44,0,7.74.09,10.78-.07,16-.29,9.71-1.58,13.22-1.74,13.9-.57,2.52-4.3,6.27-6.7,8.85A14.78,14.78,0,0,1,254.75,448.14Z" transform="translate(-170.41 -259.03)"/><path class="cls-2" d="M247.18,458.17c-1,1.6-2.54,4-4.41,6.8-4.07,6.16-6.14,9-9,13.17-2.64,3.85-4.66,6.5-7.33,10.75-3.5,5.57-5,8.55-6.32,11a90.13,90.13,0,0,0-5.77,13.45s4.2-4,8.42-8.3c6.85-6.95,15.37-9.37,17-9.93,3.83-1.31,7.65-1.77,15.28-2.68,7.83-.94,11.94-1.43,17.59-1.12,4,.22,16.64,2.62,18.32,3.09a121.63,121.63,0,0,0,12.22,2.26c6.23.79,8.21.36,15,.66,6.41.27,5.52,2,23.14,2.66,8.43.32,14.39.57,17.44-.44,3.28-1.09,4.88-1.14,17.92-13,9-8.24,7.71-7.58,15.14-15.06,3.55-3.57,16-14.68,17-15.52a0,0,0,0,0,0-.05c-.57.08-4.31-.63-12.89,1.49-5.5,1.36-10.07,1.85-10.66,2.59-1.24,1.55-1.37,3.83-2,5.18-1,2-1.56,2.56-6.64,4.06a87.73,87.73,0,0,1-16,3.09c-2.74.28-4.34.5-6.86.66l-3.88,0c-1.43.08-3,.15-5,.14-2.74,0-11.74-.24-17.39-.94-7.66-1-11-2.09-12.69-2.7a45.53,45.53,0,0,1-5.58-2.84,17,17,0,0,1-4.15-3.14c-1.3-1.44-2.49-5.33-3.41-5.76a33.82,33.82,0,0,0-5.29.42,66.28,66.28,0,0,1-14.16,1.17c-1.84-.05-3.17.17-15-.31C262,458.86,255.31,459.64,247.18,458.17Z" transform="translate(-170.41 -259.03)"/></g></svg>